<?xml version="1.0" encoding="UTF-8" standalone="no"?>
<!DOCTYPE svg PUBLIC "-//W3C//DTD SVG 1.0//EN"
 "http://www.w3.org/TR/2001/REC-SVG-20010904/DTD/svg10.dtd" [
 <!ATTLIST svg xmlns:xlink CDATA #FIXED "http://www.w3.org/1999/xlink">
]>
<!-- Generated by Graphviz version 2.20.3 (Wed Oct &#160;8 06:02:12 UTC 2008)
     For user: jwisniewski -->
<!-- Title: pf_list_before Pages: 1 -->
<svg width="134pt" height="260pt"
 viewBox="0.00 0.00 134.00 260.00" xmlns="http://www.w3.org/2000/svg" xmlns:xlink="http://www.w3.org/1999/xlink">
<g id="graph0" class="graph" transform="scale(1 1) rotate(0) translate(4 256)">
<title>pf_list_before</title>
<polygon style="fill:white;stroke:white;" points="-4,4 -4,-256 130,-256 130,4 -4,4"/>
<!-- xs -->
<g id="node1" class="node"><title>xs</title>
<text text-anchor="middle" x="27" y="-229.4" style="font-family:Times New Roman;font-size:14.00;">xs</text>
</g>
<!-- 0 -->
<g id="node3" class="node"><title>0</title>
<ellipse style="fill:none;stroke:black;" cx="27" cy="-162" rx="27" ry="18"/>
<text text-anchor="middle" x="27" y="-157.4" style="font-family:Times New Roman;font-size:14.00;">0</text>
</g>
<!-- xs&#45;&gt;0 -->
<g id="edge2" class="edge"><title>xs&#45;&gt;0</title>
<path style="fill:none;stroke:black;" d="M27,-216C27,-208 27,-199 27,-190"/>
<polygon style="fill:black;stroke:black;" points="30.5001,-190 27,-180 23.5001,-190 30.5001,-190"/>
</g>
<!-- 1 -->
<g id="node5" class="node"><title>1</title>
<ellipse style="fill:none;stroke:black;" cx="27" cy="-90" rx="27" ry="18"/>
<text text-anchor="middle" x="27" y="-85.4" style="font-family:Times New Roman;font-size:14.00;">1</text>
</g>
<!-- 0&#45;&gt;1 -->
<g id="edge4" class="edge"><title>0&#45;&gt;1</title>
<path style="fill:none;stroke:black;" d="M27,-144C27,-136 27,-127 27,-118"/>
<polygon style="fill:black;stroke:black;" points="30.5001,-118 27,-108 23.5001,-118 30.5001,-118"/>
</g>
<!-- 2 -->
<g id="node7" class="node"><title>2</title>
<ellipse style="fill:none;stroke:black;" cx="27" cy="-18" rx="27" ry="18"/>
<text text-anchor="middle" x="27" y="-13.4" style="font-family:Times New Roman;font-size:14.00;">2</text>
</g>
<!-- 1&#45;&gt;2 -->
<g id="edge6" class="edge"><title>1&#45;&gt;2</title>
<path style="fill:none;stroke:black;" d="M27,-72C27,-64 27,-55 27,-46"/>
<polygon style="fill:black;stroke:black;" points="30.5001,-46 27,-36 23.5001,-46 30.5001,-46"/>
</g>
<!-- ys -->
<g id="node8" class="node"><title>ys</title>
<text text-anchor="middle" x="99" y="-229.4" style="font-family:Times New Roman;font-size:14.00;">ys</text>
</g>
<!-- 3 -->
<g id="node10" class="node"><title>3</title>
<ellipse style="fill:none;stroke:black;" cx="99" cy="-162" rx="27" ry="18"/>
<text text-anchor="middle" x="99" y="-157.4" style="font-family:Times New Roman;font-size:14.00;">3</text>
</g>
<!-- ys&#45;&gt;3 -->
<g id="edge8" class="edge"><title>ys&#45;&gt;3</title>
<path style="fill:none;stroke:black;" d="M99,-216C99,-208 99,-199 99,-190"/>
<polygon style="fill:black;stroke:black;" points="102.5,-190 99,-180 95.5001,-190 102.5,-190"/>
</g>
<!-- 4 -->
<g id="node12" class="node"><title>4</title>
<ellipse style="fill:none;stroke:black;" cx="99" cy="-90" rx="27" ry="18"/>
<text text-anchor="middle" x="99" y="-85.4" style="font-family:Times New Roman;font-size:14.00;">4</text>
</g>
<!-- 3&#45;&gt;4 -->
<g id="edge10" class="edge"><title>3&#45;&gt;4</title>
<path style="fill:none;stroke:black;" d="M99,-144C99,-136 99,-127 99,-118"/>
<polygon style="fill:black;stroke:black;" points="102.5,-118 99,-108 95.5001,-118 102.5,-118"/>
</g>
<!-- 5 -->
<g id="node14" class="node"><title>5</title>
<ellipse style="fill:none;stroke:black;" cx="99" cy="-18" rx="27" ry="18"/>
<text text-anchor="middle" x="99" y="-13.4" style="font-family:Times New Roman;font-size:14.00;">5</text>
</g>
<!-- 4&#45;&gt;5 -->
<g id="edge12" class="edge"><title>4&#45;&gt;5</title>
<path style="fill:none;stroke:black;" d="M99,-72C99,-64 99,-55 99,-46"/>
<polygon style="fill:black;stroke:black;" points="102.5,-46 99,-36 95.5001,-46 102.5,-46"/>
</g>
</g>
</svg>
