<?xml version="1.0" encoding="UTF-8" standalone="no"?>
<!DOCTYPE svg PUBLIC "-//W3C//DTD SVG 1.0//EN"
 "http://www.w3.org/TR/2001/REC-SVG-20010904/DTD/svg10.dtd" [
 <!ATTLIST svg xmlns:xlink CDATA #FIXED "http://www.w3.org/1999/xlink">
]>
<!-- Generated by Graphviz version 2.20.3 (Wed Oct &#160;8 06:02:12 UTC 2008)
     For user: jwisniewski -->
<!-- Title: pf_list_after Pages: 1 -->
<svg width="206pt" height="476pt"
 viewBox="0.00 0.00 206.00 476.00" xmlns="http://www.w3.org/2000/svg" xmlns:xlink="http://www.w3.org/1999/xlink">
<g id="graph0" class="graph" transform="scale(1 1) rotate(0) translate(4 472)">
<title>pf_list_after</title>
<polygon style="fill:white;stroke:white;" points="-4,4 -4,-472 202,-472 202,4 -4,4"/>
<!-- xs -->
<g id="node1" class="node"><title>xs</title>
<text text-anchor="middle" x="27" y="-445.4" style="font-family:Times New Roman;font-size:14.00;">xs</text>
</g>
<!-- 0 -->
<g id="node3" class="node"><title>0</title>
<ellipse style="fill:none;stroke:black;" cx="27" cy="-378" rx="27" ry="18"/>
<text text-anchor="middle" x="27" y="-373.4" style="font-family:Times New Roman;font-size:14.00;">0</text>
</g>
<!-- xs&#45;&gt;0 -->
<g id="edge2" class="edge"><title>xs&#45;&gt;0</title>
<path style="fill:none;stroke:black;" d="M27,-432C27,-424 27,-415 27,-406"/>
<polygon style="fill:black;stroke:black;" points="30.5001,-406 27,-396 23.5001,-406 30.5001,-406"/>
</g>
<!-- 1 -->
<g id="node4" class="node"><title>1</title>
<ellipse style="fill:none;stroke:black;" cx="27" cy="-306" rx="27" ry="18"/>
<text text-anchor="middle" x="27" y="-301.4" style="font-family:Times New Roman;font-size:14.00;">1</text>
</g>
<!-- 0&#45;&gt;1 -->
<g id="edge3" class="edge"><title>0&#45;&gt;1</title>
<path style="fill:none;stroke:black;" d="M27,-360C27,-352 27,-343 27,-334"/>
<polygon style="fill:black;stroke:black;" points="30.5001,-334 27,-324 23.5001,-334 30.5001,-334"/>
</g>
<!-- 2 -->
<g id="node5" class="node"><title>2</title>
<ellipse style="fill:none;stroke:black;" cx="27" cy="-234" rx="27" ry="18"/>
<text text-anchor="middle" x="27" y="-229.4" style="font-family:Times New Roman;font-size:14.00;">2</text>
</g>
<!-- 1&#45;&gt;2 -->
<g id="edge4" class="edge"><title>1&#45;&gt;2</title>
<path style="fill:none;stroke:black;" d="M27,-288C27,-280 27,-271 27,-262"/>
<polygon style="fill:black;stroke:black;" points="30.5001,-262 27,-252 23.5001,-262 30.5001,-262"/>
</g>
<!-- ys -->
<g id="node6" class="node"><title>ys</title>
<text text-anchor="middle" x="99" y="-229.4" style="font-family:Times New Roman;font-size:14.00;">ys</text>
</g>
<!-- 3 -->
<g id="node8" class="node"><title>3</title>
<ellipse style="fill:none;stroke:black;" cx="135" cy="-162" rx="27" ry="18"/>
<text text-anchor="middle" x="135" y="-157.4" style="font-family:Times New Roman;font-size:14.00;">3</text>
</g>
<!-- ys&#45;&gt;3 -->
<g id="edge6" class="edge"><title>ys&#45;&gt;3</title>
<path style="fill:none;stroke:black;" d="M108,-216C112,-208 118,-197 122,-188"/>
<polygon style="fill:black;stroke:black;" points="125.203,-189.441 127,-179 119.084,-186.042 125.203,-189.441"/>
</g>
<!-- 4 -->
<g id="node9" class="node"><title>4</title>
<ellipse style="fill:none;stroke:black;" cx="135" cy="-90" rx="27" ry="18"/>
<text text-anchor="middle" x="135" y="-85.4" style="font-family:Times New Roman;font-size:14.00;">4</text>
</g>
<!-- 3&#45;&gt;4 -->
<g id="edge7" class="edge"><title>3&#45;&gt;4</title>
<path style="fill:none;stroke:black;" d="M135,-144C135,-136 135,-127 135,-118"/>
<polygon style="fill:black;stroke:black;" points="138.5,-118 135,-108 131.5,-118 138.5,-118"/>
</g>
<!-- 5 -->
<g id="node10" class="node"><title>5</title>
<ellipse style="fill:none;stroke:black;" cx="135" cy="-18" rx="27" ry="18"/>
<text text-anchor="middle" x="135" y="-13.4" style="font-family:Times New Roman;font-size:14.00;">5</text>
</g>
<!-- 4&#45;&gt;5 -->
<g id="edge8" class="edge"><title>4&#45;&gt;5</title>
<path style="fill:none;stroke:black;" d="M135,-72C135,-64 135,-55 135,-46"/>
<polygon style="fill:black;stroke:black;" points="138.5,-46 135,-36 131.5,-46 138.5,-46"/>
</g>
<!-- zs -->
<g id="node11" class="node"><title>zs</title>
<text text-anchor="middle" x="171" y="-445.4" style="font-family:Times New Roman;font-size:14.00;fill:blue;">zs</text>
</g>
<!-- z0 -->
<g id="node12" class="node"><title>z0</title>
<ellipse style="fill:none;stroke:blue;" cx="171" cy="-378" rx="27" ry="18"/>
<text text-anchor="middle" x="171" y="-373.4" style="font-family:Times New Roman;font-size:14.00;fill:blue;">0</text>
</g>
<!-- zs&#45;&gt;z0 -->
<g id="edge10" class="edge"><title>zs&#45;&gt;z0</title>
<path style="fill:none;stroke:blue;" d="M171,-432C171,-424 171,-415 171,-406"/>
<polygon style="fill:blue;stroke:blue;" points="174.5,-406 171,-396 167.5,-406 174.5,-406"/>
</g>
<!-- z1 -->
<g id="node13" class="node"><title>z1</title>
<ellipse style="fill:none;stroke:blue;" cx="171" cy="-306" rx="27" ry="18"/>
<text text-anchor="middle" x="171" y="-301.4" style="font-family:Times New Roman;font-size:14.00;fill:blue;">1</text>
</g>
<!-- z0&#45;&gt;z1 -->
<g id="edge11" class="edge"><title>z0&#45;&gt;z1</title>
<path style="fill:none;stroke:blue;" d="M171,-360C171,-352 171,-343 171,-334"/>
<polygon style="fill:blue;stroke:blue;" points="174.5,-334 171,-324 167.5,-334 174.5,-334"/>
</g>
<!-- z2 -->
<g id="node14" class="node"><title>z2</title>
<ellipse style="fill:none;stroke:blue;" cx="171" cy="-234" rx="27" ry="18"/>
<text text-anchor="middle" x="171" y="-229.4" style="font-family:Times New Roman;font-size:14.00;fill:blue;">2</text>
</g>
<!-- z1&#45;&gt;z2 -->
<g id="edge12" class="edge"><title>z1&#45;&gt;z2</title>
<path style="fill:none;stroke:blue;" d="M171,-288C171,-280 171,-271 171,-262"/>
<polygon style="fill:blue;stroke:blue;" points="174.5,-262 171,-252 167.5,-262 174.5,-262"/>
</g>
<!-- z2&#45;&gt;3 -->
<g id="edge13" class="edge"><title>z2&#45;&gt;3</title>
<path style="fill:none;stroke:blue;" d="M162,-217C158,-208 153,-198 148,-188"/>
<polygon style="fill:blue;stroke:blue;" points="151.26,-186.717 144,-179 144.863,-189.56 151.26,-186.717"/>
</g>
</g>
</svg>
